Feng Sheng (DivX)(nl subs) RETAIL TBS 

Alternatieve titel: The Message 



China
Drama / Thriller
120 minuten

geregisseerd door Kuo-fu Chen en Qunshu Gao
met Xun Zhou, Hanyu Zhang en Xiaoming Huang

1942, Nanking. In de nasleep van een aantal aanslagen op hooggeplaatste officials van de Chinese marionettenregering ontbiedt het hoofd van de Japanse geheime dienst een aantal verdachten in een landhuis voor verhoor. Een gespannen kat-en-muis-spelletje ontvouwt zich terwijl de gezochte Chinese codekraker probeert een cruciale boodschap te versturen zonder daarbij zijn/haar identiteit prijs te geven.

Storyline

1942, Nanjing (Nanking). Following a series of assassination attempts on officials of the Japanese-controlled puppet government, the Japanese spy chief gathers a group of suspects in a mansion house for questioning. A tense game of "cat and mouse" ensues as the Chinese code-breaker attempts to send out a crucial message while protecting his/her own identity.



info
 
Categorie : Beeld 
formaat is 1 cd Avi. 
Bron : Retail
Categorie : Beeld 
Formaat : DivX 
Bron : Retail
Ondertitels : Nederlands (ingebakken)
jaar uitgave : 2009
Thanks : masterew

General

Format                           : AVI
Format/Info                      : Audio Video Interleave
File size                        : 699 MiB
Duration                         : 1h 53mn
Overall bit rate                 : 860 Kbps
Writing application              : FairUse Wizard - http://fairusewizard.com
Writing library                  : The best and REALLY easy backup tool

Video
ID                               : 0
Format                           : AVC
Format/Info                      : Advanced Video Codec
Format profile                   : Main@L5.1
Format settings, CABAC           : Yes
Format settings, ReFrames        : 2 frames
Codec ID                         : H264
Duration                         : 1h 53mn
Bit rate                         : 466 Kbps
Width                            : 432 pixels
Height                           : 240 pixels
Display aspect ratio             : 16:9
Frame rate                       : 25.000 fps
Color space                      : YUV
Chroma subsampling               : 4:2:0
Bit depth                        : 8 bits
Scan type                        : Progressive
Bits/(Pixel*Frame)               : 0.180
Stream size                      : 379 MiB (54%)
Writing library                  : x264 core 58 svn-736bm
Encoding settings                : cabac=1 / ref=1 / deblock=1:0:0 / analyse=0x1:0x131 / me=hex / subme=5 / brdo=0 / mixed_ref=0 / me_range=16 / chroma_me=1 / trellis=1 / 8x8dct=0 / cqm=0 / deadzone=21,11 / chroma_qp_offset=0 / threads=1 / nr=0 / decimate=1 / mbaff=0 / bframes=2 / b_pyramid=0 / b_adapt=1 / b_bias=0 / direct=1 / wpredb=1 / bime=0 / keyint=250 / keyint_min=25 / scenecut=40 / rc=2pass / bitrate=466 / ratetol=1.0 / rceq='blurCplx^(1-qComp)' / qcomp=0.60 / qpmin=10 / qpmax=51 / qpstep=4 / cplxblur=20.0 / qblur=0.5 / ip_ratio=1.40 / pb_ratio=1.30

Audio
ID                               : 1
Format                           : AC-3
Format/Info                      : Audio Coding 3
Mode extension                   : CM (complete main)
Codec ID                         : 2000
Duration                         : 1h 53mn
Bit rate mode                    : Constant
Bit rate                         : 384 Kbps
Channel(s)                       : 6 channels
Channel positions                : Front: L C R, Side: L R, LFE
Sampling rate                    : 48.0 KHz
Bit depth                        : 16 bits
Stream size                      : 312 MiB (45%)
Alignment                        : Split accross interleaves
Interleave, duration             : 40 ms (1.00 video frame)
Interleave, preload duration     : 500 ms 
 
http://www.moviemeter.nl/film/61478 
http://www.imdb.com/title/tt1434423 

 
 


Black-Sam